American Experience "Death and the Civil War"
 History, Documentary, Anthology, War
In the four years during the Civil War, an estimated 750,000 Americans lost their lives, which led to a number of profound political and social changes as the shattered nation attempted to deal with the unprecedented death toll.                                       																																			                                        Enjoy and please share.																																													TTLTTLTTLTTLTTLTTLTTLTTLTTLTTLTTLTTLTTLTTLTTL																																																																		American Experience (Death And The Civil War)_720p.HDTV.x264_TTL.mkv
Format                           : Matroska
File size                        : 2.63 GiB
Duration                         : 1h 53mn
Overall bit rate                 : 3 330 Kbps
Writing application              : HandBrake 0.9.5
Writing library                  : libmkv 0.6.4.1

Video
ID                               : 1
Format                           : AVC
Format/Info                      : Advanced Video Codec
Format profile                   : High@L3.1
Format settings, CABAC           : Yes
Format settings, ReFrames        : 4 frames
Format settings, GOP             : M=1, N=2
Muxing mode                      : Container profile=Unknown@3.1
Codec ID                         : V_MPEG4/ISO/AVC
Duration                         : 1h 53mn
Bit rate                         : 3 101 Kbps
Width                            : 1 280 pixels
Height                           : 720 pixels
Display aspect ratio             : 16:9
Frame rate mode                  : Variable
Frame rate                       : 29.970 fps
Color space                      : YUV
Chroma subsampling               : 4:2:0
Bit depth                        : 8 bits
Scan type                        : Progressive
Bits/(Pixel*Frame)               : 0.112
Stream size                      : 2.40 GiB (91%)
Writing library                  : x264 core 112


Audio                            : English
ID                               : 2
Format                           : AC-3
Format/Info                      : Audio Coding 3
Mode extension                   : CM (complete main)
Codec ID                         : A_AC3
Duration                         : 1h 53mn
Bit rate mode                    : Constant
Bit rate                         : 224 Kbps
Channel(s)                       : 2 channels
Channel positions                : Front: L R
Sampling rate                    : 48.0 KHz
Stream size                      : 181 MiB (7%)

